<mxfile host="app.diagrams.net" modified="2023-08-03T12:52:41.185Z" agent="Mozilla/5.0 (Windows NT 10.0; Win64; x64) AppleWebKit/537.36 (KHTML, like Gecko) Chrome/115.0.0.0 Safari/537.36" etag="d8Ww1-_F4_pA7Muulfsh" version="21.6.6" type="github">
  <diagram name="Page-1" id="JFE0y3j45iGbmOj6WJAN">
    <mxGraphModel dx="32" dy="-1576" grid="1" gridSize="10" guides="1" tooltips="1" connect="1" arrows="1" fold="1" page="1" pageScale="1" pageWidth="827" pageHeight="1169" math="0" shadow="0">
      <root>
        <mxCell id="0" />
        <mxCell id="1" parent="0" />
        <mxCell id="vR9J5qjApLn2bLfj71ka-1" value="" style="rounded=0;whiteSpace=wrap;html=1;movable=1;resizable=1;rotatable=1;deletable=1;editable=1;locked=0;connectable=1;" vertex="1" parent="1">
          <mxGeometry x="2450" y="3442" width="1070" height="1748" as="geometry" />
        </mxCell>
        <mxCell id="vR9J5qjApLn2bLfj71ka-2" value="" style="rounded=0;whiteSpace=wrap;html=1;movable=1;resizable=1;rotatable=1;deletable=1;editable=1;locked=0;connectable=1;" vertex="1" parent="1">
          <mxGeometry x="2640" y="3487" width="730" height="1663" as="geometry" />
        </mxCell>
        <mxCell id="vR9J5qjApLn2bLfj71ka-60" value="" style="rounded=0;whiteSpace=wrap;html=1;fillColor=#f5f5f5;strokeColor=#666666;fontColor=#333333;" vertex="1" parent="1">
          <mxGeometry x="2795.5" y="4738" width="420" height="382" as="geometry" />
        </mxCell>
        <mxCell id="vR9J5qjApLn2bLfj71ka-3" value="" style="rounded=0;whiteSpace=wrap;html=1;fillColor=#f5f5f5;strokeColor=#666666;fontColor=#333333;" vertex="1" parent="1">
          <mxGeometry x="2753.75" y="4037" width="502.5" height="250" as="geometry" />
        </mxCell>
        <mxCell id="vR9J5qjApLn2bLfj71ka-4" value="" style="rounded=0;whiteSpace=wrap;html=1;fillColor=#f5f5f5;strokeColor=#666666;fontColor=#333333;" vertex="1" parent="1">
          <mxGeometry x="2829" y="3737" width="347" height="290" as="geometry" />
        </mxCell>
        <mxCell id="vR9J5qjApLn2bLfj71ka-5" value="" style="rounded=0;whiteSpace=wrap;html=1;fillColor=#f5f5f5;strokeColor=#666666;fontColor=#333333;" vertex="1" parent="1">
          <mxGeometry x="2665" y="3537" width="675" height="192" as="geometry" />
        </mxCell>
        <mxCell id="vR9J5qjApLn2bLfj71ka-6" value="" style="rounded=0;whiteSpace=wrap;html=1;fillColor=#f5f5f5;strokeColor=#666666;fontColor=#333333;" vertex="1" parent="1">
          <mxGeometry x="2788.75" y="4297" width="432.5" height="431" as="geometry" />
        </mxCell>
        <mxCell id="vR9J5qjApLn2bLfj71ka-7" value="Academic Supervisor System" style="text;html=1;align=center;verticalAlign=middle;resizable=0;points=[];autosize=1;strokeColor=none;fillColor=none;" vertex="1" parent="1">
          <mxGeometry x="2918" y="3489" width="175" height="26" as="geometry" />
        </mxCell>
        <mxCell id="vR9J5qjApLn2bLfj71ka-8" style="rounded=0;orthogonalLoop=1;jettySize=auto;html=1;exitX=0.5;exitY=0.5;exitDx=0;exitDy=0;exitPerimeter=0;entryX=0.5;entryY=0;entryDx=0;entryDy=0;endArrow=none;endFill=0;" edge="1" parent="1" source="vR9J5qjApLn2bLfj71ka-24" target="vR9J5qjApLn2bLfj71ka-26">
          <mxGeometry relative="1" as="geometry">
            <Array as="points">
              <mxPoint x="2690" y="3677" />
            </Array>
          </mxGeometry>
        </mxCell>
        <mxCell id="vR9J5qjApLn2bLfj71ka-9" style="rounded=0;orthogonalLoop=1;jettySize=auto;html=1;exitX=0.5;exitY=0.5;exitDx=0;exitDy=0;exitPerimeter=0;entryX=0;entryY=0.5;entryDx=0;entryDy=0;endArrow=none;endFill=0;" edge="1" parent="1" source="vR9J5qjApLn2bLfj71ka-24" target="vR9J5qjApLn2bLfj71ka-52">
          <mxGeometry relative="1" as="geometry" />
        </mxCell>
        <mxCell id="vR9J5qjApLn2bLfj71ka-10" style="rounded=0;orthogonalLoop=1;jettySize=auto;html=1;exitX=0.5;exitY=0.5;exitDx=0;exitDy=0;exitPerimeter=0;entryX=0;entryY=0.5;entryDx=0;entryDy=0;endArrow=none;endFill=0;" edge="1" parent="1" source="vR9J5qjApLn2bLfj71ka-24" target="vR9J5qjApLn2bLfj71ka-55">
          <mxGeometry relative="1" as="geometry">
            <mxPoint x="2919.9999999999645" y="3884" as="targetPoint" />
          </mxGeometry>
        </mxCell>
        <mxCell id="vR9J5qjApLn2bLfj71ka-11" style="rounded=0;orthogonalLoop=1;jettySize=auto;html=1;exitX=0.5;exitY=0.5;exitDx=0;exitDy=0;exitPerimeter=0;entryX=0;entryY=0.5;entryDx=0;entryDy=0;endArrow=none;endFill=0;" edge="1" parent="1" source="vR9J5qjApLn2bLfj71ka-24" target="vR9J5qjApLn2bLfj71ka-53">
          <mxGeometry relative="1" as="geometry">
            <Array as="points">
              <mxPoint x="2757" y="4026" />
            </Array>
          </mxGeometry>
        </mxCell>
        <mxCell id="vR9J5qjApLn2bLfj71ka-12" style="rounded=0;orthogonalLoop=1;jettySize=auto;html=1;exitX=0.5;exitY=0.5;exitDx=0;exitDy=0;exitPerimeter=0;entryX=0;entryY=0.5;entryDx=0;entryDy=0;endArrow=none;endFill=0;" edge="1" parent="1" source="vR9J5qjApLn2bLfj71ka-24" target="vR9J5qjApLn2bLfj71ka-31">
          <mxGeometry relative="1" as="geometry">
            <Array as="points">
              <mxPoint x="2620" y="3609" />
            </Array>
          </mxGeometry>
        </mxCell>
        <mxCell id="vR9J5qjApLn2bLfj71ka-13" style="rounded=0;orthogonalLoop=1;jettySize=auto;html=1;endArrow=none;endFill=0;entryX=0;entryY=0.5;entryDx=0;entryDy=0;exitX=0.5;exitY=0.5;exitDx=0;exitDy=0;exitPerimeter=0;" edge="1" parent="1" source="vR9J5qjApLn2bLfj71ka-24" target="vR9J5qjApLn2bLfj71ka-35">
          <mxGeometry relative="1" as="geometry">
            <mxPoint x="2709.1207504804424" y="4280.593200768708" as="targetPoint" />
            <Array as="points" />
          </mxGeometry>
        </mxCell>
        <mxCell id="vR9J5qjApLn2bLfj71ka-14" style="rounded=0;orthogonalLoop=1;jettySize=auto;html=1;exitX=0.5;exitY=0.5;exitDx=0;exitDy=0;exitPerimeter=0;entryX=0;entryY=0.5;entryDx=0;entryDy=0;endArrow=none;endFill=0;" edge="1" parent="1" source="vR9J5qjApLn2bLfj71ka-24" target="vR9J5qjApLn2bLfj71ka-37">
          <mxGeometry relative="1" as="geometry">
            <Array as="points" />
          </mxGeometry>
        </mxCell>
        <mxCell id="vR9J5qjApLn2bLfj71ka-15" style="rounded=0;orthogonalLoop=1;jettySize=auto;html=1;exitX=0.5;exitY=0.5;exitDx=0;exitDy=0;exitPerimeter=0;entryX=0;entryY=0.5;entryDx=0;entryDy=0;endArrow=none;endFill=0;" edge="1" parent="1" source="vR9J5qjApLn2bLfj71ka-24" target="vR9J5qjApLn2bLfj71ka-38">
          <mxGeometry relative="1" as="geometry">
            <Array as="points" />
          </mxGeometry>
        </mxCell>
        <mxCell id="vR9J5qjApLn2bLfj71ka-16" style="rounded=0;orthogonalLoop=1;jettySize=auto;html=1;exitX=0.5;exitY=0.5;exitDx=0;exitDy=0;exitPerimeter=0;entryX=0;entryY=0.5;entryDx=0;entryDy=0;endArrow=none;endFill=0;" edge="1" parent="1" source="vR9J5qjApLn2bLfj71ka-24" target="vR9J5qjApLn2bLfj71ka-47">
          <mxGeometry relative="1" as="geometry" />
        </mxCell>
        <mxCell id="vR9J5qjApLn2bLfj71ka-17" style="rounded=0;orthogonalLoop=1;jettySize=auto;html=1;exitX=0.5;exitY=0.5;exitDx=0;exitDy=0;exitPerimeter=0;entryX=0;entryY=0.5;entryDx=0;entryDy=0;endArrow=none;endFill=0;" edge="1" parent="1" source="vR9J5qjApLn2bLfj71ka-24" target="vR9J5qjApLn2bLfj71ka-61">
          <mxGeometry relative="1" as="geometry" />
        </mxCell>
        <mxCell id="vR9J5qjApLn2bLfj71ka-18" style="rounded=0;orthogonalLoop=1;jettySize=auto;html=1;exitX=0.5;exitY=0.5;exitDx=0;exitDy=0;exitPerimeter=0;entryX=0;entryY=0.5;entryDx=0;entryDy=0;endArrow=none;endFill=0;" edge="1" parent="1" source="vR9J5qjApLn2bLfj71ka-24" target="vR9J5qjApLn2bLfj71ka-63">
          <mxGeometry relative="1" as="geometry" />
        </mxCell>
        <mxCell id="vR9J5qjApLn2bLfj71ka-19" style="rounded=0;orthogonalLoop=1;jettySize=auto;html=1;exitX=0.5;exitY=0.5;exitDx=0;exitDy=0;exitPerimeter=0;entryX=0;entryY=0.5;entryDx=0;entryDy=0;endArrow=none;endFill=0;" edge="1" parent="1" source="vR9J5qjApLn2bLfj71ka-24" target="vR9J5qjApLn2bLfj71ka-62">
          <mxGeometry relative="1" as="geometry" />
        </mxCell>
        <mxCell id="vR9J5qjApLn2bLfj71ka-20" style="rounded=0;orthogonalLoop=1;jettySize=auto;html=1;exitX=0.5;exitY=0.5;exitDx=0;exitDy=0;exitPerimeter=0;entryX=0;entryY=0.5;entryDx=0;entryDy=0;endArrow=none;endFill=0;" edge="1" parent="1" source="vR9J5qjApLn2bLfj71ka-24" target="vR9J5qjApLn2bLfj71ka-42">
          <mxGeometry relative="1" as="geometry" />
        </mxCell>
        <mxCell id="vR9J5qjApLn2bLfj71ka-21" style="rounded=0;orthogonalLoop=1;jettySize=auto;html=1;exitX=0.5;exitY=0.5;exitDx=0;exitDy=0;exitPerimeter=0;entryX=0;entryY=0.5;entryDx=0;entryDy=0;endArrow=none;endFill=0;" edge="1" parent="1" source="vR9J5qjApLn2bLfj71ka-24" target="vR9J5qjApLn2bLfj71ka-43">
          <mxGeometry relative="1" as="geometry" />
        </mxCell>
        <mxCell id="vR9J5qjApLn2bLfj71ka-23" style="rounded=0;orthogonalLoop=1;jettySize=auto;html=1;exitX=0.5;exitY=0.5;exitDx=0;exitDy=0;exitPerimeter=0;entryX=0;entryY=0.5;entryDx=0;entryDy=0;endArrow=none;endFill=0;" edge="1" parent="1" source="vR9J5qjApLn2bLfj71ka-24" target="vR9J5qjApLn2bLfj71ka-68">
          <mxGeometry relative="1" as="geometry" />
        </mxCell>
        <mxCell id="vR9J5qjApLn2bLfj71ka-69" style="rounded=0;orthogonalLoop=1;jettySize=auto;html=1;exitX=0.5;exitY=0.5;exitDx=0;exitDy=0;exitPerimeter=0;entryX=0.015;entryY=0.674;entryDx=0;entryDy=0;entryPerimeter=0;endArrow=none;endFill=0;" edge="1" parent="1" source="vR9J5qjApLn2bLfj71ka-24" target="vR9J5qjApLn2bLfj71ka-28">
          <mxGeometry relative="1" as="geometry">
            <Array as="points">
              <mxPoint x="2880" y="3660" />
            </Array>
          </mxGeometry>
        </mxCell>
        <mxCell id="vR9J5qjApLn2bLfj71ka-24" value="Academic Supervisor" style="shape=umlActor;verticalLabelPosition=bottom;verticalAlign=top;html=1;outlineConnect=0;" vertex="1" parent="1">
          <mxGeometry x="2495" y="4127" width="30" height="70" as="geometry" />
        </mxCell>
        <mxCell id="vR9J5qjApLn2bLfj71ka-25" value="&amp;lt;&amp;lt;depends on&amp;gt;&amp;gt;" style="rounded=0;orthogonalLoop=1;jettySize=auto;html=1;exitX=0;exitY=0.5;exitDx=0;exitDy=0;dashed=1;" edge="1" parent="1" source="vR9J5qjApLn2bLfj71ka-26" target="vR9J5qjApLn2bLfj71ka-31">
          <mxGeometry relative="1" as="geometry" />
        </mxCell>
        <mxCell id="vR9J5qjApLn2bLfj71ka-26" value="login" style="ellipse;whiteSpace=wrap;html=1;" vertex="1" parent="1">
          <mxGeometry x="2920" y="3547" width="140" height="70" as="geometry" />
        </mxCell>
        <mxCell id="vR9J5qjApLn2bLfj71ka-27" value="&amp;lt;&amp;lt;depends on&amp;gt;&amp;gt;" style="edgeStyle=orthogonalEdgeStyle;rounded=0;orthogonalLoop=1;jettySize=auto;html=1;dashed=1;" edge="1" parent="1" source="vR9J5qjApLn2bLfj71ka-28" target="vR9J5qjApLn2bLfj71ka-26">
          <mxGeometry relative="1" as="geometry" />
        </mxCell>
        <mxCell id="vR9J5qjApLn2bLfj71ka-28" value="Manage Profile" style="ellipse;whiteSpace=wrap;html=1;" vertex="1" parent="1">
          <mxGeometry x="3190" y="3547" width="140" height="70" as="geometry" />
        </mxCell>
        <mxCell id="vR9J5qjApLn2bLfj71ka-29" value="Level 1" style="text;html=1;align=center;verticalAlign=middle;resizable=0;points=[];autosize=1;strokeColor=none;fillColor=none;" vertex="1" parent="1">
          <mxGeometry x="2975" y="3457" width="60" height="30" as="geometry" />
        </mxCell>
        <mxCell id="vR9J5qjApLn2bLfj71ka-30" value="&amp;lt;&amp;lt;include&amp;gt;&amp;gt;" style="rounded=0;orthogonalLoop=1;jettySize=auto;html=1;exitX=1;exitY=1;exitDx=0;exitDy=0;entryX=0;entryY=0;entryDx=0;entryDy=0;dashed=1;" edge="1" parent="1" source="vR9J5qjApLn2bLfj71ka-31" target="vR9J5qjApLn2bLfj71ka-32">
          <mxGeometry relative="1" as="geometry" />
        </mxCell>
        <mxCell id="vR9J5qjApLn2bLfj71ka-31" value="Register with Platform" style="ellipse;whiteSpace=wrap;html=1;" vertex="1" parent="1">
          <mxGeometry x="2675" y="3547" width="140" height="70" as="geometry" />
        </mxCell>
        <mxCell id="vR9J5qjApLn2bLfj71ka-32" value="&lt;span data-lucid-content=&quot;{&amp;quot;t&amp;quot;:&amp;quot;Send Resume to Acadamic Manager&amp;quot;,&amp;quot;m&amp;quot;:[]}&quot; data-lucid-type=&quot;application/vnd.lucid.text&quot;&gt;&lt;span&gt;Send Resume&lt;/span&gt;&lt;/span&gt;" style="ellipse;whiteSpace=wrap;html=1;" vertex="1" parent="1">
          <mxGeometry x="2920" y="3647" width="140" height="70" as="geometry" />
        </mxCell>
        <mxCell id="vR9J5qjApLn2bLfj71ka-33" value="&amp;lt;&amp;lt;extend&amp;gt;&amp;gt;" style="rounded=0;orthogonalLoop=1;jettySize=auto;html=1;exitX=0;exitY=0;exitDx=0;exitDy=0;entryX=1;entryY=1;entryDx=0;entryDy=0;dashed=1;" edge="1" parent="1" source="vR9J5qjApLn2bLfj71ka-34" target="vR9J5qjApLn2bLfj71ka-26">
          <mxGeometry relative="1" as="geometry" />
        </mxCell>
        <mxCell id="vR9J5qjApLn2bLfj71ka-34" value="logout" style="ellipse;whiteSpace=wrap;html=1;" vertex="1" parent="1">
          <mxGeometry x="3190" y="3657" width="140" height="70" as="geometry" />
        </mxCell>
        <mxCell id="vR9J5qjApLn2bLfj71ka-35" value="Add Permissions" style="ellipse;whiteSpace=wrap;html=1;" vertex="1" parent="1">
          <mxGeometry x="2801.25" y="4315" width="140" height="70" as="geometry" />
        </mxCell>
        <mxCell id="vR9J5qjApLn2bLfj71ka-36" value="&amp;lt;&amp;lt;include&amp;gt;&amp;gt;" style="rounded=0;orthogonalLoop=1;jettySize=auto;html=1;exitX=1;exitY=0.5;exitDx=0;exitDy=0;dashed=1;" edge="1" parent="1" source="vR9J5qjApLn2bLfj71ka-37" target="vR9J5qjApLn2bLfj71ka-39">
          <mxGeometry relative="1" as="geometry" />
        </mxCell>
        <mxCell id="vR9J5qjApLn2bLfj71ka-37" value="Remove Permissions" style="ellipse;whiteSpace=wrap;html=1;" vertex="1" parent="1">
          <mxGeometry x="2801.25" y="4397" width="140" height="70" as="geometry" />
        </mxCell>
        <mxCell id="vR9J5qjApLn2bLfj71ka-38" value="Update Permissions" style="ellipse;whiteSpace=wrap;html=1;" vertex="1" parent="1">
          <mxGeometry x="2801.25" y="4477" width="140" height="70" as="geometry" />
        </mxCell>
        <mxCell id="vR9J5qjApLn2bLfj71ka-39" value="Check Existing Permissions" style="ellipse;whiteSpace=wrap;html=1;fillColor=#f8cecc;strokeColor=#b85450;" vertex="1" parent="1">
          <mxGeometry x="3066.25" y="4397" width="140" height="70" as="geometry" />
        </mxCell>
        <mxCell id="vR9J5qjApLn2bLfj71ka-40" value="Manage Permissions" style="text;html=1;align=center;verticalAlign=middle;resizable=0;points=[];autosize=1;strokeColor=none;fillColor=none;" vertex="1" parent="1">
          <mxGeometry x="3081.25" y="4297" width="140" height="30" as="geometry" />
        </mxCell>
        <mxCell id="vR9J5qjApLn2bLfj71ka-41" value="Manage Request" style="text;html=1;align=center;verticalAlign=middle;resizable=0;points=[];autosize=1;strokeColor=none;fillColor=none;" vertex="1" parent="1">
          <mxGeometry x="2975" y="4297" width="110" height="30" as="geometry" />
        </mxCell>
        <mxCell id="vR9J5qjApLn2bLfj71ka-42" value="Handle Instructors Registration" style="ellipse;whiteSpace=wrap;html=1;" vertex="1" parent="1">
          <mxGeometry x="2801.25" y="4557" width="140" height="70" as="geometry" />
        </mxCell>
        <mxCell id="vR9J5qjApLn2bLfj71ka-43" value="Handle Complaints" style="ellipse;whiteSpace=wrap;html=1;" vertex="1" parent="1">
          <mxGeometry x="2800" y="4638" width="140" height="70" as="geometry" />
        </mxCell>
        <mxCell id="vR9J5qjApLn2bLfj71ka-44" value="Add Plan" style="ellipse;whiteSpace=wrap;html=1;" vertex="1" parent="1">
          <mxGeometry x="3101.25" y="4047" width="140" height="70" as="geometry" />
        </mxCell>
        <mxCell id="vR9J5qjApLn2bLfj71ka-45" value="Edit Plan" style="ellipse;whiteSpace=wrap;html=1;" vertex="1" parent="1">
          <mxGeometry x="3101.25" y="4127" width="140" height="70" as="geometry" />
        </mxCell>
        <mxCell id="vR9J5qjApLn2bLfj71ka-46" value="Remove Plan" style="ellipse;whiteSpace=wrap;html=1;" vertex="1" parent="1">
          <mxGeometry x="3101.25" y="4207" width="140" height="70" as="geometry" />
        </mxCell>
        <mxCell id="vR9J5qjApLn2bLfj71ka-47" value="View Plans" style="ellipse;whiteSpace=wrap;html=1;fillColor=#f8cecc;strokeColor=#b85450;" vertex="1" parent="1">
          <mxGeometry x="2763.75" y="4127" width="140" height="70" as="geometry" />
        </mxCell>
        <mxCell id="vR9J5qjApLn2bLfj71ka-48" value="Set&amp;nbsp;operational Plans" style="text;html=1;align=center;verticalAlign=middle;resizable=0;points=[];autosize=1;strokeColor=none;fillColor=none;" vertex="1" parent="1">
          <mxGeometry x="2753.75" y="4037" width="132" height="26" as="geometry" />
        </mxCell>
        <mxCell id="vR9J5qjApLn2bLfj71ka-49" value="&amp;lt;&amp;lt;extend&amp;gt;&amp;gt;" style="rounded=0;orthogonalLoop=1;jettySize=auto;html=1;exitX=0;exitY=0.5;exitDx=0;exitDy=0;entryX=0.975;entryY=0.321;entryDx=0;entryDy=0;dashed=1;entryPerimeter=0;" edge="1" parent="1" source="vR9J5qjApLn2bLfj71ka-44" target="vR9J5qjApLn2bLfj71ka-47">
          <mxGeometry relative="1" as="geometry" />
        </mxCell>
        <mxCell id="vR9J5qjApLn2bLfj71ka-50" value="&amp;lt;&amp;lt;extend&amp;gt;&amp;gt;" style="rounded=0;orthogonalLoop=1;jettySize=auto;html=1;exitX=0;exitY=0.5;exitDx=0;exitDy=0;entryX=1;entryY=0.5;entryDx=0;entryDy=0;dashed=1;" edge="1" parent="1" source="vR9J5qjApLn2bLfj71ka-45" target="vR9J5qjApLn2bLfj71ka-47">
          <mxGeometry relative="1" as="geometry" />
        </mxCell>
        <mxCell id="vR9J5qjApLn2bLfj71ka-51" value="&amp;lt;&amp;lt;extend&amp;gt;&amp;gt;" style="rounded=0;orthogonalLoop=1;jettySize=auto;html=1;entryX=0.99;entryY=0.679;entryDx=0;entryDy=0;dashed=1;entryPerimeter=0;" edge="1" parent="1" source="vR9J5qjApLn2bLfj71ka-46" target="vR9J5qjApLn2bLfj71ka-47">
          <mxGeometry relative="1" as="geometry" />
        </mxCell>
        <mxCell id="vR9J5qjApLn2bLfj71ka-52" value="View Roadmap Info" style="ellipse;whiteSpace=wrap;html=1;" vertex="1" parent="1">
          <mxGeometry x="2839" y="3747" width="140" height="70" as="geometry" />
        </mxCell>
        <mxCell id="vR9J5qjApLn2bLfj71ka-53" value="View Courses Info" style="ellipse;whiteSpace=wrap;html=1;" vertex="1" parent="1">
          <mxGeometry x="2839" y="3942" width="140" height="70" as="geometry" />
        </mxCell>
        <mxCell id="vR9J5qjApLn2bLfj71ka-54" value="Monitoring" style="text;html=1;align=center;verticalAlign=middle;resizable=0;points=[];autosize=1;strokeColor=none;fillColor=none;" vertex="1" parent="1">
          <mxGeometry x="3095.25" y="3737" width="80" height="30" as="geometry" />
        </mxCell>
        <mxCell id="vR9J5qjApLn2bLfj71ka-55" value="View the Supervised" style="ellipse;whiteSpace=wrap;html=1;" vertex="1" parent="1">
          <mxGeometry x="2839" y="3845" width="140" height="70" as="geometry" />
        </mxCell>
        <mxCell id="vR9J5qjApLn2bLfj71ka-56" style="edgeStyle=orthogonalEdgeStyle;rounded=0;orthogonalLoop=1;jettySize=auto;html=1;exitX=0;exitY=0.5;exitDx=0;exitDy=0;entryX=1;entryY=0.5;entryDx=0;entryDy=0;" edge="1" parent="1" source="vR9J5qjApLn2bLfj71ka-57" target="vR9J5qjApLn2bLfj71ka-55">
          <mxGeometry relative="1" as="geometry" />
        </mxCell>
        <mxCell id="vR9J5qjApLn2bLfj71ka-57" value="View Students" style="ellipse;whiteSpace=wrap;html=1;" vertex="1" parent="1">
          <mxGeometry x="3024" y="3801" width="140" height="70" as="geometry" />
        </mxCell>
        <mxCell id="vR9J5qjApLn2bLfj71ka-58" style="edgeStyle=orthogonalEdgeStyle;rounded=0;orthogonalLoop=1;jettySize=auto;html=1;entryX=1;entryY=0.5;entryDx=0;entryDy=0;" edge="1" parent="1" source="vR9J5qjApLn2bLfj71ka-59" target="vR9J5qjApLn2bLfj71ka-55">
          <mxGeometry relative="1" as="geometry" />
        </mxCell>
        <mxCell id="vR9J5qjApLn2bLfj71ka-59" value="View Instructors" style="ellipse;whiteSpace=wrap;html=1;" vertex="1" parent="1">
          <mxGeometry x="3024" y="3891" width="140" height="70" as="geometry" />
        </mxCell>
        <mxCell id="vR9J5qjApLn2bLfj71ka-61" value="Add Roadmap Topic" style="ellipse;whiteSpace=wrap;html=1;" vertex="1" parent="1">
          <mxGeometry x="2818.5" y="4757.25" width="140" height="70" as="geometry" />
        </mxCell>
        <mxCell id="vR9J5qjApLn2bLfj71ka-62" value="Delete Roadmap Topic" style="ellipse;whiteSpace=wrap;html=1;" vertex="1" parent="1">
          <mxGeometry x="2818.5" y="4939.75" width="140" height="70" as="geometry" />
        </mxCell>
        <mxCell id="vR9J5qjApLn2bLfj71ka-63" value="Edit Roadmap Topic" style="ellipse;whiteSpace=wrap;html=1;" vertex="1" parent="1">
          <mxGeometry x="2818.5" y="4847.25" width="140" height="70" as="geometry" />
        </mxCell>
        <mxCell id="vR9J5qjApLn2bLfj71ka-64" value="Check Courses Existence" style="ellipse;whiteSpace=wrap;html=1;" vertex="1" parent="1">
          <mxGeometry x="3058.5" y="4939.75" width="140" height="70" as="geometry" />
        </mxCell>
        <mxCell id="vR9J5qjApLn2bLfj71ka-65" value="Manage Roadmaps" style="text;html=1;align=center;verticalAlign=middle;resizable=0;points=[];autosize=1;strokeColor=none;fillColor=none;" vertex="1" parent="1">
          <mxGeometry x="3085.5" y="4738" width="130" height="30" as="geometry" />
        </mxCell>
        <mxCell id="vR9J5qjApLn2bLfj71ka-66" value="&amp;lt;&amp;lt;include&amp;gt;&amp;gt;" style="rounded=0;orthogonalLoop=1;jettySize=auto;html=1;exitX=1;exitY=0.5;exitDx=0;exitDy=0;entryX=0;entryY=0.5;entryDx=0;entryDy=0;dashed=1;" edge="1" parent="1" source="vR9J5qjApLn2bLfj71ka-62" target="vR9J5qjApLn2bLfj71ka-64">
          <mxGeometry relative="1" as="geometry" />
        </mxCell>
        <mxCell id="vR9J5qjApLn2bLfj71ka-68" value="Handle Topics State" style="ellipse;whiteSpace=wrap;html=1;" vertex="1" parent="1">
          <mxGeometry x="2818.5" y="5030" width="140" height="70" as="geometry" />
        </mxCell>
      </root>
    </mxGraphModel>
  </diagram>
</mxfile>
